<?xml version="1.0" standalone="no"?>
<!DOCTYPE svg PUBLIC "-//W3C//DTD SVG 20010904//EN"
 "http://www.w3.org/TR/2001/REC-SVG-20010904/DTD/svg10.dtd">
<svg version="1.0" xmlns="http://www.w3.org/2000/svg"
 width="900.000000pt" height="680.000000pt" viewBox="0 0 900.000000 680.000000"
 preserveAspectRatio="xMidYMid meet">

<g transform="translate(0.000000,680.000000) scale(0.100000,-0.100000)"
fill="#000000" stroke="none">
<path d="M5210 5734 c-222 -28 -410 -96 -555 -199 -69 -49 -179 -160 -220
-222 -15 -24 -30 -43 -33 -43 -3 0 -42 36 -88 80 -328 315 -812 422 -1294 285
-188 -53 -324 -125 -438 -230 -120 -111 -199 -253 -239 -426 l-17 -76 -81 -7
c-258 -20 -485 -139 -607 -320 -151 -221 -188 -530 -87 -728 l20 -39 -48 -53
c-118 -134 -173 -274 -180 -456 -9 -213 43 -356 175 -486 l72 -72 -17 -64
c-27 -97 -24 -290 6 -388 59 -191 180 -346 331 -425 146 -75 335 -92 480 -43
41 14 82 29 91 32 13 6 20 -1 29 -28 41 -127 289 -313 523 -392 260 -88 512
-67 777 66 41 21 104 59 139 85 59 43 65 46 74 29 43 -77 165 -168 342 -258
209 -105 381 -140 695 -140 226 -1 306 9 445 55 204 68 416 225 549 407 l59
80 31 -18 c94 -55 283 -87 408 -70 200 28 394 134 568 310 178 180 291 409
335 685 8 49 15 106 15 126 0 31 5 38 29 49 38 15 125 106 180 189 104 152
152 323 152 531 0 179 -35 313 -117 446 -66 107 -152 176 -268 215 l-49 17
-18 71 c-46 181 -172 324 -344 392 -54 21 -76 23 -220 23 -142 0 -166 -2 -214
-22 -30 -12 -57 -20 -59 -17 -2 2 -13 52 -24 112 -40 227 -114 386 -252 547
-144 169 -408 316 -656 366 -102 21 -321 34 -400 24z m390 -180 c402 -79 751
-359 854 -684 35 -111 56 -250 56 -374 0 -79 3 -107 11 -99 6 6 13 30 15 54
10 84 11 86 61 103 172 55 361 46 509 -24 167 -80 283 -280 285 -490 0 -61 2
-70 11 -50 5 14 8 64 6 113 -2 48 -1 87 2 87 17 0 133 -83 171 -122 253 -259
230 -727 -53 -1055 -50 -59 -58 -62 -58 -26 0 82 -83 283 -117 283 -19 0 -16
-14 17 -67 49 -79 63 -158 57 -308 -15 -356 -176 -665 -457 -877 -84 -64 -205
-123 -305 -149 -141 -36 -347 -24 -447 27 l-27 14 18 43 c25 58 51 166 50 208
0 27 -4 20 -19 -36 -26 -98 -44 -138 -106 -232 -94 -142 -274 -308 -424 -391
-81 -45 -224 -89 -352 -108 -150 -22 -457 -14 -600 15 -241 49 -431 136 -600
274 l-47 38 51 67 c65 85 155 272 131 272 -4 0 -16 -19 -26 -43 -99 -239 -476
-442 -862 -463 -257 -15 -559 100 -734 280 -80 81 -80 81 -26 128 42 37 105
128 105 152 0 6 -22 -15 -49 -45 -88 -99 -227 -146 -401 -135 -323 19 -572
190 -651 449 -32 102 -25 219 18 309 42 90 56 108 225 302 27 29 34 46 23 46
-8 0 -154 -98 -188 -127 -16 -12 -36 -23 -45 -23 -29 0 -151 100 -192 157
-156 218 -98 481 175 788 42 47 73 85 70 85 -4 0 -31 -16 -61 -36 -30 -20 -56
-35 -58 -33 -2 2 -14 33 -25 69 -101 306 79 653 422 816 79 37 211 74 265 74
32 0 34 -2 29 -28 -3 -15 -8 -79 -12 -142 -3 -63 -8 -125 -11 -137 -2 -13 -1
-23 4 -23 4 0 14 41 21 90 16 114 61 283 99 378 129 315 316 462 692 545 298
67 562 52 840 -45 250 -88 389 -191 599 -442 63 -75 116 -136 118 -136 8 0
-59 113 -126 215 -36 55 -67 105 -69 111 -4 16 81 96 165 154 275 192 643 269
973 204z"/>
</g>
</svg>
