<?xml version="1.0" standalone="no"?>
<!DOCTYPE svg PUBLIC "-//W3C//DTD SVG 20010904//EN"
 "http://www.w3.org/TR/2001/REC-SVG-20010904/DTD/svg10.dtd">
<svg version="1.0" xmlns="http://www.w3.org/2000/svg"
 width="200.000000pt" height="127.000000pt" viewBox="0 0 200.000000 127.000000"
 preserveAspectRatio="xMidYMid meet">

<g transform="translate(0.000000,127.000000) scale(0.100000,-0.100000)"
fill="#000000" stroke="none">
<path d="M837 1206 c-72 -30 -87 -43 -116 -100 -21 -43 -23 -44 -52 -34 -42
15 -122 3 -172 -24 -49 -27 -87 -80 -87 -119 0 -27 -3 -29 -38 -29 -57 0 -123
-38 -145 -82 -24 -50 -25 -183 -1 -234 12 -25 17 -64 18 -142 1 -98 3 -111 29
-154 73 -125 271 -175 418 -104 48 22 55 23 80 11 37 -20 98 -27 133 -18 24 8
33 4 65 -28 53 -53 136 -81 246 -82 80 -2 97 1 153 27 35 16 71 40 81 53 15
18 29 23 64 23 55 0 195 42 253 76 58 34 152 132 165 173 17 49 5 112 -25 138
-23 19 -24 23 -9 35 42 34 56 144 28 211 -17 42 -72 100 -116 122 -16 9 -52
19 -80 22 -48 6 -49 7 -49 40 0 119 -112 207 -231 182 -47 -10 -99 -43 -127
-81 -11 -15 -17 -12 -57 31 -69 74 -145 104 -270 108 -88 3 -107 1 -158 -21z
m290 -18 c60 -22 163 -112 163 -142 0 -25 29 -19 36 8 8 33 62 81 107 96 102
32 170 -29 192 -171 5 -36 6 -37 63 -43 153 -18 247 -122 227 -253 -6 -43 -34
-84 -64 -94 -9 -3 -4 -15 18 -36 54 -54 37 -137 -41 -196 -85 -65 -319 -133
-367 -107 -22 11 -24 9 -22 -30 1 -14 -5 -34 -13 -45 -23 -32 -186 -34 -296
-4 -90 24 -120 45 -120 83 0 35 -14 39 -52 16 -62 -37 -158 -15 -183 43 l-12
29 -35 -31 c-80 -70 -184 -89 -295 -54 -102 32 -162 106 -166 204 -2 45 1 54
27 76 l29 24 -22 15 c-39 28 -64 91 -59 151 8 91 63 144 155 151 l58 4 0 42
c0 24 8 55 18 70 37 56 164 86 215 50 18 -12 26 -13 37 -4 8 6 11 18 8 26 -9
25 23 59 87 93 81 43 102 49 182 50 46 1 85 -6 125 -21z m-867 -623 c0 -5 -5
-3 -10 5 -5 8 -10 20 -10 25 0 6 5 3 10 -5 5 -8 10 -19 10 -25z m122 -314 c20
-7 26 -15 22 -28 -5 -17 -5 -17 6 0 6 9 16 15 21 11 6 -4 6 -11 -2 -20 -15
-18 -5 -18 14 1 10 10 26 12 51 8 36 -6 36 -6 19 -27 -14 -17 -12 -16 9 3 19
16 35 22 53 19 14 -3 28 -1 31 3 3 5 10 9 16 9 6 0 3 -9 -7 -20 -10 -11 -13
-20 -7 -20 6 0 14 5 17 10 4 6 10 8 14 5 5 -2 17 5 27 18 l19 22 -22 -19 c-13
-11 -23 -14 -23 -8 0 6 15 19 33 28 17 9 42 26 55 37 33 30 29 0 -5 -37 -16
-17 -19 -23 -8 -15 11 9 27 16 35 16 22 -1 54 -33 41 -42 -6 -3 -11 -2 -11 4
0 6 -9 15 -20 21 -16 8 -26 6 -48 -10 -16 -12 -39 -22 -53 -24 -14 -1 -30 -6
-37 -10 -7 -4 -20 -2 -28 5 -12 10 -15 10 -12 -1 2 -7 -3 -15 -10 -17 -8 -3
-10 2 -6 14 5 17 5 17 -9 1 -17 -21 -66 -23 -118 -4 -40 14 -113 66 -104 74 3
3 -5 17 -17 31 -23 26 -23 26 7 -1 17 -15 42 -31 57 -37z m1419 45 c-26 -32
-232 -118 -247 -104 -11 12 21 49 38 44 10 -2 21 0 24 5 3 5 10 9 16 9 6 0 5
-7 -3 -17 -13 -15 -12 -15 9 -4 12 6 22 8 22 4 1 -4 10 3 21 16 15 19 22 22
28 12 7 -10 12 -8 24 9 8 12 20 19 25 16 5 -3 15 1 22 9 7 8 17 15 22 15 6 0
6 -6 -1 -14z m-972 -52 c27 -12 38 -22 34 -33 -3 -12 -1 -11 11 3 8 10 22 16
31 13 8 -4 15 -2 15 3 0 6 5 10 12 10 6 0 3 -8 -7 -20 -10 -11 -21 -17 -26
-15 -4 3 -10 1 -14 -5 -9 -15 -78 -13 -73 2 5 13 -41 55 -54 51 -10 -4 -10 0
-2 21 5 13 8 13 20 1 8 -7 32 -21 53 -31z m156 -5 c-4 -5 -2 -9 2 -9 5 0 14
-10 22 -22 7 -13 10 -20 6 -15 -5 4 -17 -1 -28 -10 -19 -18 -20 -17 -7 7 13
24 12 24 -5 10 -17 -14 -18 -14 -6 8 11 21 8 27 -13 23 -5 -1 -4 5 3 13 14 16
36 12 26 -5z m535 -17 c0 -5 -9 -17 -20 -27 -20 -18 -25 -11 -14 19 6 17 34
23 34 8z m23 -17 c-23 -32 -34 -32 -20 0 7 14 18 25 25 25 9 0 8 -7 -5 -25z
m-493 -40 c8 -5 23 -8 33 -7 9 2 17 -1 17 -7 0 -6 7 -7 17 -4 10 4 14 2 9 -5
-3 -6 -20 -9 -36 -7 -19 2 -28 0 -24 -6 3 -6 12 -8 20 -5 8 3 11 0 7 -10 -7
-18 -18 -18 -36 1 -8 8 -17 11 -21 8 -3 -4 -6 -1 -6 5 0 7 5 12 10 12 6 0 10
5 10 12 0 6 -3 8 -7 5 -3 -4 -12 -2 -19 4 -8 7 -14 7 -19 -1 -3 -5 -1 -10 4
-10 6 0 11 -5 11 -11 0 -8 -5 -8 -15 1 -11 9 -12 16 -5 25 12 14 27 14 50 0z
m130 -30 c0 4 6 3 12 -2 7 -4 33 -6 57 -6 25 1 51 -3 58 -9 7 -6 13 -6 13 -1
0 5 12 9 28 10 l27 2 -28 -15 c-15 -8 -32 -12 -37 -9 -6 3 -10 2 -10 -4 0 -5
-10 -8 -22 -6 -12 3 -27 0 -35 -6 -19 -17 -66 -2 -59 18 6 14 4 14 -18 -1 -47
-31 -75 -13 -40 25 13 14 21 16 35 8 11 -5 19 -7 19 -4z"/>
<path d="M1587 223 c-4 -3 -7 -11 -7 -17 0 -6 5 -5 12 2 6 6 9 14 7 17 -3 3
-9 2 -12 -2z"/>
<path d="M835 219 c-4 -6 -5 -12 -2 -15 2 -3 7 2 10 11 7 17 1 20 -8 4z"/>
<path d="M1145 120 c-4 -6 -11 -8 -16 -5 -5 4 -9 1 -9 -4 0 -17 27 -13 34 4 6
17 0 20 -9 5z"/>
<path d="M1205 100 c-3 -5 1 -10 10 -10 9 0 13 5 10 10 -3 6 -8 10 -10 10 -2
0 -7 -4 -10 -10z"/>
<path d="M81 554 c-40 -50 -22 -82 44 -82 53 0 75 13 75 44 0 46 -17 64 -60
64 -30 0 -43 -6 -59 -26z m103 -6 c15 -25 -3 -51 -42 -59 -27 -5 -32 -3 -43
22 -9 23 -9 32 1 45 17 20 69 15 84 -8z m-86 -63 c-3 -3 -9 2 -12 12 -6 14 -5
15 5 6 7 -7 10 -15 7 -18z"/>
</g>
</svg>
